<svg xmlns="http://www.w3.org/2000/svg" viewBox="0 0 1440 320"><path fill="#8E24AA" fill-opacity="1" d="M0,96L34.3,117.3C68.6,139,137,181,206,165.3C274.3,149,343,75,411,69.3C480,64,549,128,617,138.7C685.7,149,754,107,823,106.7C891.4,107,960,149,1029,176C1097.1,203,1166,213,1234,208C1302.9,203,1371,181,1406,170.7L1440,160L1440,0L1405.7,0C1371.4,0,1303,0,1234,0C1165.7,0,1097,0,1029,0C960,0,891,0,823,0C754.3,0,686,0,617,0C548.6,0,480,0,411,0C342.9,0,274,0,206,0C137.1,0,69,0,34,0L0,0Z"></path></svg>